<svg xmlns="http://www.w3.org/2000/svg" viewBox="0 0 24 24" fill="currentColor">
  <path d="M12,2C14.74,2 17.17,3.17 18.84,5.12C20.5,7.07 21.35,9.66 21.1,12.28C20.85,14.9 19.5,17.31 17.43,18.96C15.36,20.61 12.74,21.38 10.1,21.13C7.46,20.88 5.04,19.64 3.29,17.68C1.54,15.72 0.59,13.19 0.64,10.6C0.69,8.01 1.74,5.52 3.58,3.61C5.42,1.7 7.91,0.5 10.54,0.26L10.93,0.22C11.29,0.19 11.64,0.18 12,0.18V2C11.74,2 11.47,2.01 11.21,2.03L10.9,2.06C8.81,2.26 6.87,3.23 5.45,4.79C4.03,6.35 3.21,8.38 3.15,10.5C3.09,12.62 3.79,14.69 5.11,16.33C6.43,17.97 8.29,19.06 10.39,19.43C12.49,19.8 14.64,19.43 16.5,18.38C18.36,17.33 19.81,15.65 20.58,13.63C21.35,11.61 21.39,9.38 20.69,7.34C19.99,5.3 18.59,3.58 16.74,2.46L16.5,2.32L17.5,0.68L17.89,0.89C20.29,2.23 22.14,4.37 23.06,6.92C23.98,9.47 23.92,12.27 22.9,14.78C21.88,17.29 19.95,19.37 17.46,20.63C14.97,21.89 12.09,22.26 9.36,21.69C6.63,21.12 4.2,19.65 2.45,17.54C0.7,15.43 -0.24,12.8 -0.05,10.15C0.14,7.5 1.33,5.01 3.29,3.18C5.25,1.35 7.78,0.29 10.46,0.22L10.93,0.19C11.29,0.17 11.64,0.16 12,0.16V2Z"/>
  <circle cx="12" cy="8" r="2"/>
  <circle cx="8" cy="14" r="1.5"/>
  <circle cx="16" cy="14" r="1.5"/>
  <path d="M10,12 Q12,10 14,12"/>
</svg>
